<?xml version="1.0" ?>
<svg xmlns="http://www.w3.org/2000/svg" xmlns:xlink="http://www.w3.org/1999/xlink" version="1.1" width="42.0mm" height="22.0mm" viewBox="-1.0 -23.0 42.0 22.0">
	<g transform="scale(1,-1)">
		<g>
			<path fill-rule="evenodd" fill="#66cc99" stroke="#555555" stroke-width="0.02" opacity="0.6" d="M 1.0,0.0 L 0.9951847266721969,-0.0980171403295605 L 0.9807852804032305,-0.19509032201612808 L 0.9569403357322089,-0.2902846772544621 L 0.923879532511287,-0.3826834323650894 L 0.8819212643483553,-0.4713967368259972 L 0.8314696123025456,-0.5555702330196017 L 0.7730104533627374,-0.6343932841636449 L 0.7071067811865481,-0.7071067811865469 L 0.6343932841636462,-0.7730104533627363 L 0.5555702330196031,-0.8314696123025447 L 0.4713967368259986,-0.8819212643483545 L 0.38268343236509084,-0.9238795325112863 L 0.2902846772544636,-0.9569403357322085 L 0.19509032201612964,-0.9807852804032302 L 0.09801714032956209,-0.9951847266721967 L 1.6155445744325867e-15,-1.0 L -0.09801714032955888,-0.995184726672197 L -0.19509032201612647,-0.9807852804032308 L -0.2902846772544605,-0.9569403357322095 L -0.38268343236508784,-0.9238795325112875 L -0.4713967368259957,-0.881921264348356 L -0.5555702330196005,-0.8314696123025463 L -0.6343932841636439,-0.7730104533627382 L -0.7071067811865462,-0.7071067811865489 L -0.7730104533627359,-0.6343932841636468 L -0.8314696123025443,-0.5555702330196036 L -0.8819212643483543,-0.47139673682599903 L -0.9238795325112862,-0.3826834323650911 L -0.9569403357322085,-0.29028467725446366 L -0.9807852804032302,-0.19509032201612947 L -0.9951847266721968,-0.09801714032956171 L -1.0,-1.0106430996148606e-15 L -0.9951847266721969,0.0980171403295597 L -0.9807852804032307,0.1950903220161275 L -0.956940335732209,0.2902846772544617 L -0.923879532511287,0.3826834323650892 L -0.8819212643483553,0.47139673682599725 L -0.8314696123025455,0.555570233019602 L -0.7730104533627371,0.6343932841636453 L -0.7071067811865477,0.7071067811865475 L -0.6343932841636459,0.7730104533627367 L -0.555570233019603,0.8314696123025448 L -0.4713967368259987,0.8819212643483545 L -0.38268343236509117,0.9238795325112862 L -0.2902846772544641,0.9569403357322084 L -0.1950903220161304,0.98078528040323 L -0.0980171403295631,0.9951847266721966 L -2.848232278972479e-15,1.0 L 0.09801714032955743,0.9951847266721972 L 0.1950903220161248,0.9807852804032311 L 0.29028467725445867,0.9569403357322099 L 0.3826834323650859,0.9238795325112884 L 0.47139673682599365,0.8819212643483572 L 0.5555702330195982,0.8314696123025479 L 0.6343932841636415,0.7730104533627402 L 0.7071067811865436,0.7071067811865515 L 0.7730104533627332,0.63439328416365 L 0.8314696123025418,0.5555702330196074 L 0.8819212643483519,0.4713967368260034 L 0.9238795325112841,0.38268343236509617 L 0.9569403357322067,0.29028467725446927 L 0.980785280403229,0.1950903220161357 L 0.9951847266721962,0.09801714032956847 L 1.0,8.238535137130597e-15 L 1.0,0.0 z"/>
			<path fill-rule="evenodd" fill="#66cc99" stroke="#555555" stroke-width="0.02" opacity="0.6" d="M 41.0,0.0 L 40.9951847266722,-0.0980171403295605 L 40.98078528040323,-0.19509032201612808 L 40.956940335732206,-0.2902846772544621 L 40.923879532511286,-0.3826834323650894 L 40.88192126434836,-0.4713967368259972 L 40.83146961230255,-0.5555702330196017 L 40.77301045336274,-0.6343932841636449 L 40.707106781186546,-0.7071067811865469 L 40.63439328416364,-0.7730104533627363 L 40.5555702330196,-0.8314696123025447 L 40.471396736826,-0.8819212643483545 L 40.38268343236509,-0.9238795325112863 L 40.29028467725446,-0.9569403357322085 L 40.19509032201613,-0.9807852804032302 L 40.09801714032956,-0.9951847266721967 L 40.0,-1.0 L 39.90198285967044,-0.995184726672197 L 39.80490967798387,-0.9807852804032308 L 39.70971532274554,-0.9569403357322095 L 39.617316567634916,-0.9238795325112875 L 39.528603263174006,-0.881921264348356 L 39.4444297669804,-0.8314696123025463 L 39.36560671583636,-0.7730104533627382 L 39.292893218813454,-0.7071067811865489 L 39.22698954663726,-0.6343932841636468 L 39.16853038769746,-0.5555702330196036 L 39.11807873565164,-0.47139673682599903 L 39.076120467488714,-0.3826834323650911 L 39.043059664267794,-0.29028467725446366 L 39.01921471959677,-0.19509032201612947 L 39.0048152733278,-0.09801714032956171 L 39.0,-1.0106430996148606e-15 L 39.0048152733278,0.0980171403295597 L 39.01921471959677,0.1950903220161275 L 39.043059664267794,0.2902846772544617 L 39.076120467488714,0.3826834323650892 L 39.11807873565164,0.47139673682599725 L 39.16853038769745,0.555570233019602 L 39.22698954663726,0.6343932841636453 L 39.292893218813454,0.7071067811865475 L 39.36560671583636,0.7730104533627367 L 39.4444297669804,0.8314696123025448 L 39.528603263174,0.8819212643483545 L 39.61731656763491,0.9238795325112862 L 39.70971532274554,0.9569403357322084 L 39.80490967798387,0.98078528040323 L 39.90198285967044,0.9951847266721966 L 40.0,1.0 L 40.09801714032956,0.9951847266721972 L 40.19509032201613,0.9807852804032311 L 40.29028467725446,0.9569403357322099 L 40.382683432365084,0.9238795325112884 L 40.471396736825994,0.8819212643483572 L 40.5555702330196,0.8314696123025479 L 40.63439328416364,0.7730104533627402 L 40.707106781186546,0.7071067811865515 L 40.77301045336273,0.63439328416365 L 40.83146961230254,0.5555702330196074 L 40.88192126434835,0.4713967368260034 L 40.923879532511286,0.38268343236509617 L 40.956940335732206,0.29028467725446927 L 40.98078528040323,0.1950903220161357 L 40.99518472667219,0.09801714032956847 L 41.0,8.238535137130597e-15 L 41.0,0.0 z"/>
			<path fill-rule="evenodd" fill="#66cc99" stroke="#555555" stroke-width="0.02" opacity="0.6" d="M 1.0,20.0 L 0.9951847266721969,19.90198285967044 L 0.9807852804032305,19.804909677983872 L 0.9569403357322089,19.709715322745538 L 0.923879532511287,19.617316567634912 L 0.8819212643483553,19.528603263174002 L 0.8314696123025456,19.4444297669804 L 0.7730104533627374,19.365606715836353 L 0.7071067811865481,19.292893218813454 L 0.6343932841636462,19.226989546637263 L 0.5555702330196031,19.168530387697455 L 0.4713967368259986,19.118078735651647 L 0.38268343236509084,19.076120467488714 L 0.2902846772544636,19.04305966426779 L 0.19509032201612964,19.01921471959677 L 0.09801714032956209,19.004815273327804 L 1.6155445744325867e-15,19.0 L -0.09801714032955888,19.004815273327804 L -0.19509032201612647,19.019214719596768 L -0.2902846772544605,19.04305966426779 L -0.38268343236508784,19.076120467488714 L -0.4713967368259957,19.118078735651643 L -0.5555702330196005,19.168530387697455 L -0.6343932841636439,19.226989546637263 L -0.7071067811865462,19.29289321881345 L -0.7730104533627359,19.365606715836353 L -0.8314696123025443,19.444429766980395 L -0.8819212643483543,19.528603263174002 L -0.9238795325112862,19.61731656763491 L -0.9569403357322085,19.709715322745538 L -0.9807852804032302,19.804909677983872 L -0.9951847266721968,19.90198285967044 L -1.0,20.0 L -0.9951847266721969,20.09801714032956 L -0.9807852804032307,20.195090322016128 L -0.956940335732209,20.290284677254462 L -0.923879532511287,20.382683432365088 L -0.8819212643483553,20.471396736825998 L -0.8314696123025455,20.5555702330196 L -0.7730104533627371,20.634393284163647 L -0.7071067811865477,20.707106781186546 L -0.6343932841636459,20.773010453362737 L -0.555570233019603,20.831469612302545 L -0.4713967368259987,20.881921264348353 L -0.38268343236509117,20.923879532511286 L -0.2902846772544641,20.95694033573221 L -0.1950903220161304,20.98078528040323 L -0.0980171403295631,20.995184726672196 L -2.848232278972479e-15,21.0 L 0.09801714032955743,20.995184726672196 L 0.1950903220161248,20.980785280403232 L 0.29028467725445867,20.95694033573221 L 0.3826834323650859,20.92387953251129 L 0.47139673682599365,20.881921264348357 L 0.5555702330195982,20.83146961230255 L 0.6343932841636415,20.77301045336274 L 0.7071067811865436,20.707106781186553 L 0.7730104533627332,20.63439328416365 L 0.8314696123025418,20.55557023301961 L 0.8819212643483519,20.471396736826005 L 0.9238795325112841,20.382683432365095 L 0.9569403357322067,20.29028467725447 L 0.980785280403229,20.195090322016135 L 0.9951847266721962,20.098017140329567 L 1.0,20.000000000000007 L 1.0,20.0 z"/>
			<path fill-rule="evenodd" fill="#66cc99" stroke="#555555" stroke-width="0.02" opacity="0.6" d="M 41.0,20.0 L 40.9951847266722,19.90198285967044 L 40.98078528040323,19.804909677983872 L 40.956940335732206,19.709715322745538 L 40.923879532511286,19.617316567634912 L 40.88192126434836,19.528603263174002 L 40.83146961230255,19.4444297669804 L 40.77301045336274,19.365606715836353 L 40.707106781186546,19.292893218813454 L 40.63439328416364,19.226989546637263 L 40.5555702330196,19.168530387697455 L 40.471396736826,19.118078735651647 L 40.38268343236509,19.076120467488714 L 40.29028467725446,19.04305966426779 L 40.19509032201613,19.01921471959677 L 40.09801714032956,19.004815273327804 L 40.0,19.0 L 39.90198285967044,19.004815273327804 L 39.80490967798387,19.019214719596768 L 39.70971532274554,19.04305966426779 L 39.617316567634916,19.076120467488714 L 39.528603263174006,19.118078735651643 L 39.4444297669804,19.168530387697455 L 39.36560671583636,19.226989546637263 L 39.292893218813454,19.29289321881345 L 39.22698954663726,19.365606715836353 L 39.16853038769746,19.444429766980395 L 39.11807873565164,19.528603263174002 L 39.076120467488714,19.61731656763491 L 39.043059664267794,19.709715322745538 L 39.01921471959677,19.804909677983872 L 39.0048152733278,19.90198285967044 L 39.0,20.0 L 39.0048152733278,20.09801714032956 L 39.01921471959677,20.195090322016128 L 39.043059664267794,20.290284677254462 L 39.076120467488714,20.382683432365088 L 39.11807873565164,20.471396736825998 L 39.16853038769745,20.5555702330196 L 39.22698954663726,20.634393284163647 L 39.292893218813454,20.707106781186546 L 39.36560671583636,20.773010453362737 L 39.4444297669804,20.831469612302545 L 39.528603263174,20.881921264348353 L 39.61731656763491,20.923879532511286 L 39.70971532274554,20.95694033573221 L 39.80490967798387,20.98078528040323 L 39.90198285967044,20.995184726672196 L 40.0,21.0 L 40.09801714032956,20.995184726672196 L 40.19509032201613,20.980785280403232 L 40.29028467725446,20.95694033573221 L 40.382683432365084,20.92387953251129 L 40.471396736825994,20.881921264348357 L 40.5555702330196,20.83146961230255 L 40.63439328416364,20.77301045336274 L 40.707106781186546,20.707106781186553 L 40.77301045336273,20.63439328416365 L 40.83146961230254,20.55557023301961 L 40.88192126434835,20.471396736826005 L 40.923879532511286,20.382683432365095 L 40.956940335732206,20.29028467725447 L 40.98078528040323,20.195090322016135 L 40.99518472667219,20.098017140329567 L 41.0,20.000000000000007 L 41.0,20.0 z"/>
		</g>
	</g>
	 
</svg>
