<?xml version="1.0" ?>
<svg xmlns="http://www.w3.org/2000/svg" xmlns:xlink="http://www.w3.org/1999/xlink" version="1.1" width="26.974999999999994mm" height="9.0mm" viewBox="7.800000000000011 -3.0 26.974999999999994 9.0">
	<g transform="scale(1,-1)">
		<g>
			<path fill-rule="evenodd" fill="#66cc99" stroke="#555555" stroke-width="0.02" opacity="0.6" d="M 32.235000000000014,6.5 L 32.23259236333611,6.45099142983522 L 32.225392640201626,6.402454838991936 L 32.21347016786612,6.354857661372769 L 32.19693976625566,6.308658283817455 L 32.17596063217419,6.264301631587001 L 32.150734806151284,6.222214883490199 L 32.121505226681386,6.182803357918178 L 32.08855339059329,6.146446609406727 L 32.05219664208184,6.113494773318632 L 32.01278511650982,6.0842651938487275 L 31.970698368413014,6.0590393678258225 L 31.92634171618256,6.038060233744357 L 31.880142338627245,6.021529832133896 L 31.832545161008078,6.009607359798385 L 31.784008570164794,6.002407636663902 L 31.735000000000014,6.0 L 31.685991429835234,6.002407636663902 L 31.63745483899195,6.009607359798385 L 31.589857661372783,6.021529832133895 L 31.54365828381747,6.038060233744356 L 31.499301631587016,6.059039367825822 L 31.457214883490213,6.084265193848727 L 31.417803357918192,6.113494773318631 L 31.38144660940674,6.146446609406725 L 31.348494773318645,6.182803357918177 L 31.319265193848743,6.2222148834901985 L 31.294039367825835,6.264301631587 L 31.27306023374437,6.308658283817454 L 31.25652983213391,6.354857661372768 L 31.244607359798398,6.402454838991935 L 31.237407636663914,6.450991429835219 L 31.235000000000014,6.499999999999999 L 31.237407636663914,6.54900857016478 L 31.244607359798398,6.597545161008064 L 31.25652983213391,6.645142338627231 L 31.27306023374437,6.691341716182545 L 31.294039367825835,6.735698368412999 L 31.31926519384874,6.777785116509801 L 31.348494773318645,6.817196642081822 L 31.38144660940674,6.853553390593274 L 31.417803357918192,6.886505226681368 L 31.457214883490213,6.9157348061512725 L 31.499301631587013,6.9409606321741775 L 31.543658283817468,6.961939766255643 L 31.589857661372783,6.978470167866104 L 31.63745483899195,6.990392640201615 L 31.685991429835234,6.997592363336098 L 31.735000000000014,7.0 L 31.784008570164794,6.997592363336098 L 31.832545161008078,6.990392640201615 L 31.880142338627245,6.978470167866105 L 31.926341716182556,6.961939766255644 L 31.97069836841301,6.940960632174178 L 32.01278511650981,6.915734806151274 L 32.05219664208183,6.88650522668137 L 32.08855339059328,6.853553390593276 L 32.12150522668138,6.817196642081825 L 32.150734806151284,6.777785116509803 L 32.17596063217419,6.735698368413002 L 32.19693976625565,6.691341716182548 L 32.21347016786612,6.645142338627235 L 32.225392640201626,6.5975451610080675 L 32.23259236333611,6.549008570164784 L 32.235000000000014,6.500000000000004 L 32.235000000000014,6.5 z"/>
			<path fill-rule="evenodd" fill="#66cc99" stroke="#555555" stroke-width="0.02" opacity="0.6" d="M 34.775000000000006,6.5 L 34.7725923633361,6.45099142983522 L 34.76539264020162,6.402454838991936 L 34.75347016786611,6.354857661372769 L 34.73693976625565,6.308658283817455 L 34.71596063217418,6.264301631587001 L 34.690734806151276,6.222214883490199 L 34.66150522668138,6.182803357918178 L 34.62855339059328,6.146446609406727 L 34.59219664208183,6.113494773318632 L 34.55278511650981,6.0842651938487275 L 34.510698368413,6.0590393678258225 L 34.46634171618255,6.038060233744357 L 34.42014233862724,6.021529832133896 L 34.37254516100807,6.009607359798385 L 34.324008570164786,6.002407636663902 L 34.275000000000006,6.0 L 34.225991429835226,6.002407636663902 L 34.17745483899194,6.009607359798385 L 34.129857661372775,6.021529832133895 L 34.08365828381746,6.038060233744356 L 34.03930163158701,6.059039367825822 L 33.99721488349021,6.084265193848727 L 33.95780335791818,6.113494773318631 L 33.92144660940673,6.146446609406725 L 33.88849477331864,6.182803357918177 L 33.859265193848735,6.2222148834901985 L 33.83403936782583,6.264301631587 L 33.81306023374436,6.308658283817454 L 33.7965298321339,6.354857661372768 L 33.78460735979839,6.402454838991935 L 33.77740763666391,6.450991429835219 L 33.775000000000006,6.499999999999999 L 33.77740763666391,6.54900857016478 L 33.78460735979839,6.597545161008064 L 33.7965298321339,6.645142338627231 L 33.81306023374436,6.691341716182545 L 33.83403936782583,6.735698368412999 L 33.859265193848735,6.777785116509801 L 33.888494773318634,6.817196642081822 L 33.92144660940673,6.853553390593274 L 33.95780335791818,6.886505226681368 L 33.9972148834902,6.9157348061512725 L 34.03930163158701,6.9409606321741775 L 34.08365828381746,6.961939766255643 L 34.129857661372775,6.978470167866104 L 34.17745483899194,6.990392640201615 L 34.225991429835226,6.997592363336098 L 34.275000000000006,7.0 L 34.324008570164786,6.997592363336098 L 34.37254516100807,6.990392640201615 L 34.42014233862724,6.978470167866105 L 34.46634171618255,6.961939766255644 L 34.510698368413,6.940960632174178 L 34.5527851165098,6.915734806151274 L 34.592196642081824,6.88650522668137 L 34.628553390593275,6.853553390593276 L 34.66150522668137,6.817196642081825 L 34.690734806151276,6.777785116509803 L 34.71596063217418,6.735698368413002 L 34.736939766255645,6.691341716182548 L 34.75347016786611,6.645142338627235 L 34.76539264020162,6.5975451610080675 L 34.7725923633361,6.549008570164784 L 34.775000000000006,6.500000000000004 L 34.775000000000006,6.5 z"/>
			<path fill-rule="evenodd" fill="#66cc99" stroke="#555555" stroke-width="0.02" opacity="0.6" d="M 8.800000000000011,9.5 L 8.79759236333611,9.45099142983522 L 8.790392640201627,9.402454838991936 L 8.778470167866116,9.354857661372769 L 8.761939766255654,9.308658283817456 L 8.74096063217419,9.264301631587001 L 8.715734806151284,9.2222148834902 L 8.68650522668138,9.182803357918177 L 8.653553390593286,9.146446609406727 L 8.617196642081835,9.113494773318632 L 8.577785116509812,9.084265193848728 L 8.53569836841301,9.059039367825823 L 8.491341716182557,9.038060233744357 L 8.445142338627242,9.021529832133895 L 8.397545161008075,9.009607359798386 L 8.349008570164793,9.002407636663902 L 8.300000000000011,9.0 L 8.250991429835231,9.002407636663902 L 8.202454838991947,9.009607359798384 L 8.15485766137278,9.021529832133895 L 8.108658283817467,9.038060233744357 L 8.064301631587014,9.059039367825822 L 8.02221488349021,9.084265193848728 L 7.98280335791819,9.113494773318632 L 7.946446609406738,9.146446609406725 L 7.913494773318644,9.182803357918177 L 7.884265193848739,9.222214883490198 L 7.859039367825834,9.264301631587001 L 7.838060233744368,9.308658283817454 L 7.8215298321339075,9.354857661372769 L 7.809607359798396,9.402454838991936 L 7.802407636663913,9.45099142983522 L 7.800000000000011,9.5 L 7.802407636663913,9.54900857016478 L 7.809607359798396,9.597545161008064 L 7.821529832133907,9.645142338627231 L 7.838060233744368,9.691341716182544 L 7.859039367825834,9.735698368412999 L 7.884265193848739,9.7777851165098 L 7.913494773318643,9.817196642081823 L 7.946446609406737,9.853553390593273 L 7.982803357918188,9.886505226681368 L 8.02221488349021,9.915734806151272 L 8.064301631587012,9.940960632174177 L 8.108658283817466,9.961939766255643 L 8.154857661372779,9.978470167866105 L 8.202454838991946,9.990392640201614 L 8.25099142983523,9.997592363336098 L 8.30000000000001,10.0 L 8.34900857016479,9.997592363336098 L 8.397545161008074,9.990392640201616 L 8.44514233862724,9.978470167866105 L 8.491341716182554,9.961939766255645 L 8.535698368413009,9.940960632174178 L 8.57778511650981,9.915734806151274 L 8.617196642081833,9.88650522668137 L 8.653553390593283,9.853553390593277 L 8.686505226681378,9.817196642081825 L 8.715734806151282,9.777785116509804 L 8.740960632174188,9.735698368413003 L 8.761939766255653,9.691341716182547 L 8.778470167866114,9.645142338627235 L 8.790392640201626,9.597545161008068 L 8.79759236333611,9.549008570164784 L 8.800000000000011,9.500000000000004 L 8.800000000000011,9.5 z"/>
			<path fill-rule="evenodd" fill="#66cc99" stroke="#555555" stroke-width="0.02" opacity="0.6" d="M 32.235000000000014,11.579999999999998 L 32.23259236333611,11.530991429835218 L 32.225392640201626,11.482454838991934 L 32.21347016786612,11.434857661372767 L 32.19693976625566,11.388658283817454 L 32.17596063217419,11.344301631587 L 32.150734806151284,11.302214883490198 L 32.121505226681386,11.262803357918175 L 32.08855339059329,11.226446609406725 L 32.05219664208184,11.19349477331863 L 32.01278511650982,11.164265193848726 L 31.970698368413014,11.139039367825822 L 31.92634171618256,11.118060233744355 L 31.880142338627245,11.101529832133894 L 31.832545161008078,11.089607359798384 L 31.784008570164794,11.0824076366639 L 31.735000000000014,11.079999999999998 L 31.685991429835234,11.0824076366639 L 31.63745483899195,11.089607359798382 L 31.589857661372783,11.101529832133894 L 31.54365828381747,11.118060233744355 L 31.499301631587016,11.13903936782582 L 31.457214883490213,11.164265193848726 L 31.417803357918192,11.19349477331863 L 31.38144660940674,11.226446609406723 L 31.348494773318645,11.262803357918175 L 31.319265193848743,11.302214883490196 L 31.294039367825835,11.344301631587 L 31.27306023374437,11.388658283817453 L 31.25652983213391,11.434857661372767 L 31.244607359798398,11.482454838991934 L 31.237407636663914,11.530991429835218 L 31.235000000000014,11.579999999999998 L 31.237407636663914,11.629008570164778 L 31.244607359798398,11.677545161008062 L 31.25652983213391,11.72514233862723 L 31.27306023374437,11.771341716182542 L 31.294039367825835,11.815698368412997 L 31.31926519384874,11.857785116509799 L 31.348494773318645,11.897196642081822 L 31.38144660940674,11.933553390593271 L 31.417803357918192,11.966505226681367 L 31.457214883490213,11.99573480615127 L 31.499301631587013,12.020960632174175 L 31.543658283817468,12.041939766255641 L 31.589857661372783,12.058470167866103 L 31.63745483899195,12.070392640201613 L 31.685991429835234,12.077592363336096 L 31.735000000000014,12.079999999999998 L 31.784008570164794,12.077592363336096 L 31.832545161008078,12.070392640201614 L 31.880142338627245,12.058470167866103 L 31.926341716182556,12.041939766255643 L 31.97069836841301,12.020960632174177 L 32.01278511650981,11.995734806151273 L 32.05219664208183,11.966505226681369 L 32.08855339059328,11.933553390593275 L 32.12150522668138,11.897196642081823 L 32.150734806151284,11.857785116509802 L 32.17596063217419,11.815698368413 L 32.19693976625565,11.771341716182546 L 32.21347016786612,11.725142338627233 L 32.225392640201626,11.677545161008066 L 32.23259236333611,11.629008570164782 L 32.235000000000014,11.580000000000002 L 32.235000000000014,11.579999999999998 z"/>
			<path fill-rule="evenodd" fill="#66cc99" stroke="#555555" stroke-width="0.02" opacity="0.6" d="M 34.775000000000006,11.579999999999998 L 34.7725923633361,11.530991429835218 L 34.76539264020162,11.482454838991934 L 34.75347016786611,11.434857661372767 L 34.73693976625565,11.388658283817454 L 34.71596063217418,11.344301631587 L 34.690734806151276,11.302214883490198 L 34.66150522668138,11.262803357918175 L 34.62855339059328,11.226446609406725 L 34.59219664208183,11.19349477331863 L 34.55278511650981,11.164265193848726 L 34.510698368413,11.139039367825822 L 34.46634171618255,11.118060233744355 L 34.42014233862724,11.101529832133894 L 34.37254516100807,11.089607359798384 L 34.324008570164786,11.0824076366639 L 34.275000000000006,11.079999999999998 L 34.225991429835226,11.0824076366639 L 34.17745483899194,11.089607359798382 L 34.129857661372775,11.101529832133894 L 34.08365828381746,11.118060233744355 L 34.03930163158701,11.13903936782582 L 33.99721488349021,11.164265193848726 L 33.95780335791818,11.19349477331863 L 33.92144660940673,11.226446609406723 L 33.88849477331864,11.262803357918175 L 33.859265193848735,11.302214883490196 L 33.83403936782583,11.344301631587 L 33.81306023374436,11.388658283817453 L 33.7965298321339,11.434857661372767 L 33.78460735979839,11.482454838991934 L 33.77740763666391,11.530991429835218 L 33.775000000000006,11.579999999999998 L 33.77740763666391,11.629008570164778 L 33.78460735979839,11.677545161008062 L 33.7965298321339,11.72514233862723 L 33.81306023374436,11.771341716182542 L 33.83403936782583,11.815698368412997 L 33.859265193848735,11.857785116509799 L 33.888494773318634,11.897196642081822 L 33.92144660940673,11.933553390593271 L 33.95780335791818,11.966505226681367 L 33.9972148834902,11.99573480615127 L 34.03930163158701,12.020960632174175 L 34.08365828381746,12.041939766255641 L 34.129857661372775,12.058470167866103 L 34.17745483899194,12.070392640201613 L 34.225991429835226,12.077592363336096 L 34.275000000000006,12.079999999999998 L 34.324008570164786,12.077592363336096 L 34.37254516100807,12.070392640201614 L 34.42014233862724,12.058470167866103 L 34.46634171618255,12.041939766255643 L 34.510698368413,12.020960632174177 L 34.5527851165098,11.995734806151273 L 34.592196642081824,11.966505226681369 L 34.628553390593275,11.933553390593275 L 34.66150522668137,11.897196642081823 L 34.690734806151276,11.857785116509802 L 34.71596063217418,11.815698368413 L 34.736939766255645,11.771341716182546 L 34.75347016786611,11.725142338627233 L 34.76539264020162,11.677545161008066 L 34.7725923633361,11.629008570164782 L 34.775000000000006,11.580000000000002 L 34.775000000000006,11.579999999999998 z"/>
			<path fill-rule="evenodd" fill="#66cc99" stroke="#555555" stroke-width="0.02" opacity="0.6" d="M 32.235000000000014,14.120000000000005 L 32.23259236333611,14.070991429835225 L 32.225392640201626,14.02245483899194 L 32.21347016786612,13.974857661372774 L 32.19693976625566,13.92865828381746 L 32.17596063217419,13.884301631587006 L 32.150734806151284,13.842214883490204 L 32.121505226681386,13.802803357918181 L 32.08855339059329,13.766446609406731 L 32.05219664208184,13.733494773318636 L 32.01278511650982,13.704265193848732 L 31.970698368413014,13.679039367825828 L 31.92634171618256,13.658060233744362 L 31.880142338627245,13.6415298321339 L 31.832545161008078,13.62960735979839 L 31.784008570164794,13.622407636663906 L 31.735000000000014,13.620000000000005 L 31.685991429835234,13.622407636663906 L 31.63745483899195,13.629607359798388 L 31.589857661372783,13.6415298321339 L 31.54365828381747,13.658060233744362 L 31.499301631587016,13.679039367825826 L 31.457214883490213,13.704265193848732 L 31.417803357918192,13.733494773318636 L 31.38144660940674,13.76644660940673 L 31.348494773318645,13.802803357918181 L 31.319265193848743,13.842214883490202 L 31.294039367825835,13.884301631587006 L 31.27306023374437,13.928658283817459 L 31.25652983213391,13.974857661372774 L 31.244607359798398,14.02245483899194 L 31.237407636663914,14.070991429835225 L 31.235000000000014,14.120000000000005 L 31.237407636663914,14.169008570164785 L 31.244607359798398,14.217545161008069 L 31.25652983213391,14.265142338627236 L 31.27306023374437,14.311341716182548 L 31.294039367825835,14.355698368413004 L 31.31926519384874,14.397785116509805 L 31.348494773318645,14.437196642081828 L 31.38144660940674,14.473553390593278 L 31.417803357918192,14.506505226681373 L 31.457214883490213,14.535734806151277 L 31.499301631587013,14.560960632174181 L 31.543658283817468,14.581939766255648 L 31.589857661372783,14.59847016786611 L 31.63745483899195,14.610392640201619 L 31.685991429835234,14.617592363336103 L 31.735000000000014,14.620000000000005 L 31.784008570164794,14.617592363336103 L 31.832545161008078,14.61039264020162 L 31.880142338627245,14.59847016786611 L 31.926341716182556,14.58193976625565 L 31.97069836841301,14.560960632174183 L 32.01278511650981,14.535734806151279 L 32.05219664208183,14.506505226681375 L 32.08855339059328,14.473553390593281 L 32.12150522668138,14.43719664208183 L 32.150734806151284,14.397785116509809 L 32.17596063217419,14.355698368413007 L 32.19693976625565,14.311341716182552 L 32.21347016786612,14.26514233862724 L 32.225392640201626,14.217545161008072 L 32.23259236333611,14.169008570164788 L 32.235000000000014,14.120000000000008 L 32.235000000000014,14.120000000000005 z"/>
			<path fill-rule="evenodd" fill="#66cc99" stroke="#555555" stroke-width="0.02" opacity="0.6" d="M 34.775000000000006,14.120000000000005 L 34.7725923633361,14.070991429835225 L 34.76539264020162,14.02245483899194 L 34.75347016786611,13.974857661372774 L 34.73693976625565,13.92865828381746 L 34.71596063217418,13.884301631587006 L 34.690734806151276,13.842214883490204 L 34.66150522668138,13.802803357918181 L 34.62855339059328,13.766446609406731 L 34.59219664208183,13.733494773318636 L 34.55278511650981,13.704265193848732 L 34.510698368413,13.679039367825828 L 34.46634171618255,13.658060233744362 L 34.42014233862724,13.6415298321339 L 34.37254516100807,13.62960735979839 L 34.324008570164786,13.622407636663906 L 34.275000000000006,13.620000000000005 L 34.225991429835226,13.622407636663906 L 34.17745483899194,13.629607359798388 L 34.129857661372775,13.6415298321339 L 34.08365828381746,13.658060233744362 L 34.03930163158701,13.679039367825826 L 33.99721488349021,13.704265193848732 L 33.95780335791818,13.733494773318636 L 33.92144660940673,13.76644660940673 L 33.88849477331864,13.802803357918181 L 33.859265193848735,13.842214883490202 L 33.83403936782583,13.884301631587006 L 33.81306023374436,13.928658283817459 L 33.7965298321339,13.974857661372774 L 33.78460735979839,14.02245483899194 L 33.77740763666391,14.070991429835225 L 33.775000000000006,14.120000000000005 L 33.77740763666391,14.169008570164785 L 33.78460735979839,14.217545161008069 L 33.7965298321339,14.265142338627236 L 33.81306023374436,14.311341716182548 L 33.83403936782583,14.355698368413004 L 33.859265193848735,14.397785116509805 L 33.888494773318634,14.437196642081828 L 33.92144660940673,14.473553390593278 L 33.95780335791818,14.506505226681373 L 33.9972148834902,14.535734806151277 L 34.03930163158701,14.560960632174181 L 34.08365828381746,14.581939766255648 L 34.129857661372775,14.59847016786611 L 34.17745483899194,14.610392640201619 L 34.225991429835226,14.617592363336103 L 34.275000000000006,14.620000000000005 L 34.324008570164786,14.617592363336103 L 34.37254516100807,14.61039264020162 L 34.42014233862724,14.59847016786611 L 34.46634171618255,14.58193976625565 L 34.510698368413,14.560960632174183 L 34.5527851165098,14.535734806151279 L 34.592196642081824,14.506505226681375 L 34.628553390593275,14.473553390593281 L 34.66150522668137,14.43719664208183 L 34.690734806151276,14.397785116509809 L 34.71596063217418,14.355698368413007 L 34.736939766255645,14.311341716182552 L 34.75347016786611,14.26514233862724 L 34.76539264020162,14.217545161008072 L 34.7725923633361,14.169008570164788 L 34.775000000000006,14.120000000000008 L 34.775000000000006,14.120000000000005 z"/>
			<path fill-rule="evenodd" fill="#66cc99" stroke="#555555" stroke-width="0.02" opacity="0.6" d="M 10.974999999999994,14.5 L 10.972592363336092,14.45099142983522 L 10.96539264020161,14.402454838991936 L 10.953470167866099,14.354857661372769 L 10.936939766255637,14.308658283817456 L 10.915960632174173,14.264301631587001 L 10.890734806151267,14.2222148834902 L 10.861505226681363,14.182803357918177 L 10.82855339059327,14.146446609406727 L 10.792196642081818,14.113494773318632 L 10.752785116509795,14.084265193848728 L 10.710698368412993,14.059039367825823 L 10.66634171618254,14.038060233744357 L 10.620142338627225,14.021529832133895 L 10.572545161008058,14.009607359798386 L 10.524008570164776,14.002407636663902 L 10.474999999999994,14.0 L 10.425991429835214,14.002407636663902 L 10.37745483899193,14.009607359798384 L 10.329857661372763,14.021529832133895 L 10.28365828381745,14.038060233744357 L 10.239301631586997,14.059039367825822 L 10.197214883490194,14.084265193848728 L 10.157803357918173,14.113494773318632 L 10.121446609406721,14.146446609406725 L 10.088494773318626,14.182803357918177 L 10.059265193848722,14.222214883490198 L 10.034039367825818,14.264301631587001 L 10.013060233744351,14.308658283817454 L 9.99652983213389,14.354857661372769 L 9.98460735979838,14.402454838991936 L 9.977407636663896,14.45099142983522 L 9.974999999999994,14.5 L 9.977407636663896,14.54900857016478 L 9.984607359798378,14.597545161008064 L 9.99652983213389,14.645142338627231 L 10.013060233744351,14.691341716182544 L 10.034039367825816,14.735698368412999 L 10.059265193848722,14.7777851165098 L 10.088494773318626,14.817196642081823 L 10.121446609406721,14.853553390593273 L 10.157803357918171,14.886505226681368 L 10.197214883490194,14.915734806151272 L 10.239301631586995,14.940960632174177 L 10.283658283817449,14.961939766255643 L 10.329857661372762,14.978470167866105 L 10.377454838991929,14.990392640201614 L 10.425991429835213,14.997592363336098 L 10.474999999999993,15.0 L 10.524008570164773,14.997592363336098 L 10.572545161008057,14.990392640201616 L 10.620142338627224,14.978470167866105 L 10.666341716182536,14.961939766255645 L 10.710698368412991,14.940960632174178 L 10.752785116509793,14.915734806151274 L 10.792196642081816,14.88650522668137 L 10.828553390593266,14.853553390593277 L 10.861505226681361,14.817196642081825 L 10.890734806151265,14.777785116509804 L 10.915960632174171,14.735698368413003 L 10.936939766255636,14.691341716182547 L 10.953470167866097,14.645142338627235 L 10.965392640201609,14.597545161008068 L 10.972592363336092,14.549008570164784 L 10.974999999999994,14.500000000000004 L 10.974999999999994,14.5 z"/>
			<path fill-rule="evenodd" fill="#66cc99" stroke="#555555" stroke-width="0.02" opacity="0.6" d="M 13.514999999999986,14.5 L 13.512592363336084,14.45099142983522 L 13.505392640201602,14.402454838991936 L 13.493470167866091,14.354857661372769 L 13.47693976625563,14.308658283817456 L 13.455960632174165,14.264301631587001 L 13.430734806151259,14.2222148834902 L 13.401505226681355,14.182803357918177 L 13.368553390593261,14.146446609406727 L 13.33219664208181,14.113494773318632 L 13.292785116509787,14.084265193848728 L 13.250698368412985,14.059039367825823 L 13.206341716182532,14.038060233744357 L 13.160142338627217,14.021529832133895 L 13.11254516100805,14.009607359798386 L 13.064008570164768,14.002407636663902 L 13.014999999999986,14.0 L 12.965991429835206,14.002407636663902 L 12.917454838991922,14.009607359798384 L 12.869857661372755,14.021529832133895 L 12.823658283817442,14.038060233744357 L 12.77930163158699,14.059039367825822 L 12.737214883490186,14.084265193848728 L 12.697803357918165,14.113494773318632 L 12.661446609406713,14.146446609406725 L 12.628494773318618,14.182803357918177 L 12.599265193848714,14.222214883490198 L 12.57403936782581,14.264301631587001 L 12.553060233744343,14.308658283817454 L 12.536529832133882,14.354857661372769 L 12.524607359798372,14.402454838991936 L 12.517407636663888,14.45099142983522 L 12.514999999999986,14.5 L 12.517407636663888,14.54900857016478 L 12.52460735979837,14.597545161008064 L 12.536529832133882,14.645142338627231 L 12.553060233744343,14.691341716182544 L 12.574039367825808,14.735698368412999 L 12.599265193848714,14.7777851165098 L 12.628494773318618,14.817196642081823 L 12.661446609406713,14.853553390593273 L 12.697803357918163,14.886505226681368 L 12.737214883490186,14.915734806151272 L 12.779301631586987,14.940960632174177 L 12.82365828381744,14.961939766255643 L 12.869857661372754,14.978470167866105 L 12.91745483899192,14.990392640201614 L 12.965991429835205,14.997592363336098 L 13.014999999999985,15.0 L 13.064008570164765,14.997592363336098 L 13.112545161008049,14.990392640201616 L 13.160142338627216,14.978470167866105 L 13.206341716182529,14.961939766255645 L 13.250698368412984,14.940960632174178 L 13.292785116509785,14.915734806151274 L 13.332196642081808,14.88650522668137 L 13.368553390593258,14.853553390593277 L 13.401505226681353,14.817196642081825 L 13.430734806151257,14.777785116509804 L 13.455960632174163,14.735698368413003 L 13.476939766255628,14.691341716182547 L 13.49347016786609,14.645142338627235 L 13.5053926402016,14.597545161008068 L 13.512592363336084,14.549008570164784 L 13.514999999999986,14.500000000000004 L 13.514999999999986,14.5 z"/>
			<path fill-rule="evenodd" fill="#66cc99" stroke="#555555" stroke-width="0.02" opacity="0.6" d="M 16.055000000000007,14.5 L 16.052592363336107,14.45099142983522 L 16.045392640201623,14.402454838991936 L 16.03347016786611,14.354857661372769 L 16.01693976625565,14.308658283817456 L 15.995960632174185,14.264301631587001 L 15.97073480615128,14.2222148834902 L 15.941505226681375,14.182803357918177 L 15.908553390593282,14.146446609406727 L 15.87219664208183,14.113494773318632 L 15.832785116509807,14.084265193848728 L 15.790698368413006,14.059039367825823 L 15.746341716182553,14.038060233744357 L 15.700142338627238,14.021529832133895 L 15.65254516100807,14.009607359798386 L 15.604008570164789,14.002407636663902 L 15.555000000000007,14.0 L 15.505991429835227,14.002407636663902 L 15.457454838991943,14.009607359798384 L 15.409857661372776,14.021529832133895 L 15.363658283817463,14.038060233744357 L 15.31930163158701,14.059039367825822 L 15.277214883490206,14.084265193848728 L 15.237803357918185,14.113494773318632 L 15.201446609406734,14.146446609406725 L 15.168494773318638,14.182803357918177 L 15.139265193848734,14.222214883490198 L 15.11403936782583,14.264301631587001 L 15.093060233744364,14.308658283817454 L 15.076529832133902,14.354857661372769 L 15.064607359798392,14.402454838991936 L 15.057407636663909,14.45099142983522 L 15.055000000000007,14.5 L 15.057407636663909,14.54900857016478 L 15.06460735979839,14.597545161008064 L 15.076529832133902,14.645142338627231 L 15.093060233744364,14.691341716182544 L 15.114039367825828,14.735698368412999 L 15.139265193848734,14.7777851165098 L 15.168494773318638,14.817196642081823 L 15.201446609406734,14.853553390593273 L 15.237803357918184,14.886505226681368 L 15.277214883490206,14.915734806151272 L 15.319301631587008,14.940960632174177 L 15.363658283817461,14.961939766255643 L 15.409857661372774,14.978470167866105 L 15.457454838991941,14.990392640201614 L 15.505991429835225,14.997592363336098 L 15.555000000000005,15.0 L 15.604008570164785,14.997592363336098 L 15.652545161008069,14.990392640201616 L 15.700142338627236,14.978470167866105 L 15.746341716182549,14.961939766255645 L 15.790698368413004,14.940960632174178 L 15.832785116509806,14.915734806151274 L 15.872196642081828,14.88650522668137 L 15.908553390593278,14.853553390593277 L 15.941505226681373,14.817196642081825 L 15.970734806151277,14.777785116509804 L 15.995960632174183,14.735698368413003 L 16.01693976625565,14.691341716182547 L 16.03347016786611,14.645142338627235 L 16.045392640201623,14.597545161008068 L 16.052592363336103,14.549008570164784 L 16.055000000000007,14.500000000000004 L 16.055000000000007,14.5 z"/>
			<path fill-rule="evenodd" fill="#66cc99" stroke="#555555" stroke-width="0.02" opacity="0.6" d="M 32.235000000000014,9.040000000000006 L 32.23259236333611,8.990991429835226 L 32.225392640201626,8.942454838991942 L 32.21347016786612,8.894857661372775 L 32.19693976625566,8.848658283817462 L 32.17596063217419,8.804301631587007 L 32.150734806151284,8.762214883490206 L 32.121505226681386,8.722803357918183 L 32.08855339059329,8.686446609406733 L 32.05219664208184,8.653494773318638 L 32.01278511650982,8.624265193848734 L 31.970698368413014,8.59903936782583 L 31.92634171618256,8.578060233744363 L 31.880142338627245,8.561529832133902 L 31.832545161008078,8.549607359798392 L 31.784008570164794,8.542407636663908 L 31.735000000000014,8.540000000000006 L 31.685991429835234,8.542407636663908 L 31.63745483899195,8.54960735979839 L 31.589857661372783,8.561529832133902 L 31.54365828381747,8.578060233744363 L 31.499301631587016,8.599039367825828 L 31.457214883490213,8.624265193848734 L 31.417803357918192,8.653494773318638 L 31.38144660940674,8.686446609406731 L 31.348494773318645,8.722803357918183 L 31.319265193848743,8.762214883490204 L 31.294039367825835,8.804301631587007 L 31.27306023374437,8.84865828381746 L 31.25652983213391,8.894857661372775 L 31.244607359798398,8.942454838991942 L 31.237407636663914,8.990991429835226 L 31.235000000000014,9.040000000000006 L 31.237407636663914,9.089008570164786 L 31.244607359798398,9.13754516100807 L 31.25652983213391,9.185142338627237 L 31.27306023374437,9.23134171618255 L 31.294039367825835,9.275698368413005 L 31.31926519384874,9.317785116509807 L 31.348494773318645,9.35719664208183 L 31.38144660940674,9.39355339059328 L 31.417803357918192,9.426505226681375 L 31.457214883490213,9.455734806151279 L 31.499301631587013,9.480960632174183 L 31.543658283817468,9.50193976625565 L 31.589857661372783,9.518470167866111 L 31.63745483899195,9.53039264020162 L 31.685991429835234,9.537592363336104 L 31.735000000000014,9.540000000000006 L 31.784008570164794,9.537592363336104 L 31.832545161008078,9.530392640201622 L 31.880142338627245,9.518470167866111 L 31.926341716182556,9.501939766255651 L 31.97069836841301,9.480960632174185 L 32.01278511650981,9.45573480615128 L 32.05219664208183,9.426505226681376 L 32.08855339059328,9.393553390593283 L 32.12150522668138,9.357196642081831 L 32.150734806151284,9.31778511650981 L 32.17596063217419,9.275698368413009 L 32.19693976625565,9.231341716182554 L 32.21347016786612,9.18514233862724 L 32.225392640201626,9.137545161008074 L 32.23259236333611,9.08900857016479 L 32.235000000000014,9.04000000000001 L 32.235000000000014,9.040000000000006 z"/>
			<path fill-rule="evenodd" fill="#66cc99" stroke="#555555" stroke-width="0.02" opacity="0.6" d="M 34.775000000000006,9.040000000000006 L 34.7725923633361,8.990991429835226 L 34.76539264020162,8.942454838991942 L 34.75347016786611,8.894857661372775 L 34.73693976625565,8.848658283817462 L 34.71596063217418,8.804301631587007 L 34.690734806151276,8.762214883490206 L 34.66150522668138,8.722803357918183 L 34.62855339059328,8.686446609406733 L 34.59219664208183,8.653494773318638 L 34.55278511650981,8.624265193848734 L 34.510698368413,8.59903936782583 L 34.46634171618255,8.578060233744363 L 34.42014233862724,8.561529832133902 L 34.37254516100807,8.549607359798392 L 34.324008570164786,8.542407636663908 L 34.275000000000006,8.540000000000006 L 34.225991429835226,8.542407636663908 L 34.17745483899194,8.54960735979839 L 34.129857661372775,8.561529832133902 L 34.08365828381746,8.578060233744363 L 34.03930163158701,8.599039367825828 L 33.99721488349021,8.624265193848734 L 33.95780335791818,8.653494773318638 L 33.92144660940673,8.686446609406731 L 33.88849477331864,8.722803357918183 L 33.859265193848735,8.762214883490204 L 33.83403936782583,8.804301631587007 L 33.81306023374436,8.84865828381746 L 33.7965298321339,8.894857661372775 L 33.78460735979839,8.942454838991942 L 33.77740763666391,8.990991429835226 L 33.775000000000006,9.040000000000006 L 33.77740763666391,9.089008570164786 L 33.78460735979839,9.13754516100807 L 33.7965298321339,9.185142338627237 L 33.81306023374436,9.23134171618255 L 33.83403936782583,9.275698368413005 L 33.859265193848735,9.317785116509807 L 33.888494773318634,9.35719664208183 L 33.92144660940673,9.39355339059328 L 33.95780335791818,9.426505226681375 L 33.9972148834902,9.455734806151279 L 34.03930163158701,9.480960632174183 L 34.08365828381746,9.50193976625565 L 34.129857661372775,9.518470167866111 L 34.17745483899194,9.53039264020162 L 34.225991429835226,9.537592363336104 L 34.275000000000006,9.540000000000006 L 34.324008570164786,9.537592363336104 L 34.37254516100807,9.530392640201622 L 34.42014233862724,9.518470167866111 L 34.46634171618255,9.501939766255651 L 34.510698368413,9.480960632174185 L 34.5527851165098,9.45573480615128 L 34.592196642081824,9.426505226681376 L 34.628553390593275,9.393553390593283 L 34.66150522668137,9.357196642081831 L 34.690734806151276,9.31778511650981 L 34.71596063217418,9.275698368413009 L 34.736939766255645,9.231341716182554 L 34.75347016786611,9.18514233862724 L 34.76539264020162,9.137545161008074 L 34.7725923633361,9.08900857016479 L 34.775000000000006,9.04000000000001 L 34.775000000000006,9.040000000000006 z"/>
			<path fill-rule="evenodd" fill="#66cc99" stroke="#555555" stroke-width="0.02" opacity="0.6" d="M 11.340000000000003,9.5 L 11.337592363336102,9.45099142983522 L 11.33039264020162,9.402454838991936 L 11.318470167866108,9.354857661372769 L 11.301939766255646,9.308658283817456 L 11.280960632174182,9.264301631587001 L 11.255734806151276,9.2222148834902 L 11.226505226681372,9.182803357918177 L 11.193553390593278,9.146446609406727 L 11.157196642081827,9.113494773318632 L 11.117785116509804,9.084265193848728 L 11.075698368413002,9.059039367825823 L 11.031341716182549,9.038060233744357 L 10.985142338627234,9.021529832133895 L 10.937545161008067,9.009607359798386 L 10.889008570164785,9.002407636663902 L 10.840000000000003,9.0 L 10.790991429835223,9.002407636663902 L 10.74245483899194,9.009607359798384 L 10.694857661372772,9.021529832133895 L 10.64865828381746,9.038060233744357 L 10.604301631587006,9.059039367825822 L 10.562214883490203,9.084265193848728 L 10.522803357918182,9.113494773318632 L 10.48644660940673,9.146446609406725 L 10.453494773318635,9.182803357918177 L 10.424265193848731,9.222214883490198 L 10.399039367825827,9.264301631587001 L 10.37806023374436,9.308658283817454 L 10.361529832133899,9.354857661372769 L 10.349607359798389,9.402454838991936 L 10.342407636663905,9.45099142983522 L 10.340000000000003,9.5 L 10.342407636663905,9.54900857016478 L 10.349607359798387,9.597545161008064 L 10.361529832133899,9.645142338627231 L 10.37806023374436,9.691341716182544 L 10.399039367825825,9.735698368412999 L 10.424265193848731,9.7777851165098 L 10.453494773318635,9.817196642081823 L 10.48644660940673,9.853553390593273 L 10.52280335791818,9.886505226681368 L 10.562214883490203,9.915734806151272 L 10.604301631587004,9.940960632174177 L 10.648658283817458,9.961939766255643 L 10.69485766137277,9.978470167866105 L 10.742454838991938,9.990392640201614 L 10.790991429835222,9.997592363336098 L 10.840000000000002,10.0 L 10.889008570164782,9.997592363336098 L 10.937545161008066,9.990392640201616 L 10.985142338627233,9.978470167866105 L 11.031341716182546,9.961939766255645 L 11.075698368413,9.940960632174178 L 11.117785116509802,9.915734806151274 L 11.157196642081825,9.88650522668137 L 11.193553390593275,9.853553390593277 L 11.22650522668137,9.817196642081825 L 11.255734806151274,9.777785116509804 L 11.28096063217418,9.735698368413003 L 11.301939766255645,9.691341716182547 L 11.318470167866106,9.645142338627235 L 11.330392640201618,9.597545161008068 L 11.337592363336102,9.549008570164784 L 11.340000000000003,9.500000000000004 L 11.340000000000003,9.5 z"/>
			<path fill-rule="evenodd" fill="#66cc99" stroke="#555555" stroke-width="0.02" opacity="0.6" d="M 13.879999999999995,9.5 L 13.877592363336094,9.45099142983522 L 13.870392640201612,9.402454838991936 L 13.8584701678661,9.354857661372769 L 13.841939766255638,9.308658283817456 L 13.820960632174174,9.264301631587001 L 13.795734806151268,9.2222148834902 L 13.766505226681364,9.182803357918177 L 13.73355339059327,9.146446609406727 L 13.697196642081819,9.113494773318632 L 13.657785116509796,9.084265193848728 L 13.615698368412994,9.059039367825823 L 13.571341716182541,9.038060233744357 L 13.525142338627226,9.021529832133895 L 13.47754516100806,9.009607359798386 L 13.429008570164777,9.002407636663902 L 13.379999999999995,9.0 L 13.330991429835215,9.002407636663902 L 13.282454838991931,9.009607359798384 L 13.234857661372764,9.021529832133895 L 13.188658283817452,9.038060233744357 L 13.144301631586998,9.059039367825822 L 13.102214883490195,9.084265193848728 L 13.062803357918174,9.113494773318632 L 13.026446609406722,9.146446609406725 L 12.993494773318627,9.182803357918177 L 12.964265193848723,9.222214883490198 L 12.939039367825819,9.264301631587001 L 12.918060233744352,9.308658283817454 L 12.90152983213389,9.354857661372769 L 12.889607359798381,9.402454838991936 L 12.882407636663897,9.45099142983522 L 12.879999999999995,9.5 L 12.882407636663897,9.54900857016478 L 12.88960735979838,9.597545161008064 L 12.90152983213389,9.645142338627231 L 12.918060233744352,9.691341716182544 L 12.939039367825817,9.735698368412999 L 12.964265193848723,9.7777851165098 L 12.993494773318627,9.817196642081823 L 13.026446609406722,9.853553390593273 L 13.062803357918172,9.886505226681368 L 13.102214883490195,9.915734806151272 L 13.144301631586996,9.940960632174177 L 13.18865828381745,9.961939766255643 L 13.234857661372763,9.978470167866105 L 13.28245483899193,9.990392640201614 L 13.330991429835214,9.997592363336098 L 13.379999999999994,10.0 L 13.429008570164774,9.997592363336098 L 13.477545161008058,9.990392640201616 L 13.525142338627225,9.978470167866105 L 13.571341716182538,9.961939766255645 L 13.615698368412993,9.940960632174178 L 13.657785116509794,9.915734806151274 L 13.697196642081817,9.88650522668137 L 13.733553390593267,9.853553390593277 L 13.766505226681362,9.817196642081825 L 13.795734806151266,9.777785116509804 L 13.820960632174172,9.735698368413003 L 13.841939766255637,9.691341716182547 L 13.858470167866098,9.645142338627235 L 13.87039264020161,9.597545161008068 L 13.877592363336094,9.549008570164784 L 13.879999999999995,9.500000000000004 L 13.879999999999995,9.5 z"/>
			<path fill-rule="evenodd" fill="#66cc99" stroke="#555555" stroke-width="0.02" opacity="0.6" d="M 16.419999999999987,9.5 L 16.417592363336087,9.45099142983522 L 16.410392640201604,9.402454838991936 L 16.39847016786609,9.354857661372769 L 16.38193976625563,9.308658283817456 L 16.360960632174166,9.264301631587001 L 16.33573480615126,9.2222148834902 L 16.306505226681356,9.182803357918177 L 16.27355339059326,9.146446609406727 L 16.23719664208181,9.113494773318632 L 16.197785116509788,9.084265193848728 L 16.15569836841299,9.059039367825823 L 16.111341716182533,9.038060233744357 L 16.06514233862722,9.021529832133895 L 16.01754516100805,9.009607359798386 L 15.96900857016477,9.002407636663902 L 15.919999999999987,9.0 L 15.870991429835207,9.002407636663902 L 15.822454838991924,9.009607359798384 L 15.774857661372756,9.021529832133895 L 15.728658283817444,9.038060233744357 L 15.68430163158699,9.059039367825822 L 15.642214883490187,9.084265193848728 L 15.602803357918166,9.113494773318632 L 15.566446609406714,9.146446609406725 L 15.533494773318619,9.182803357918177 L 15.504265193848715,9.222214883490198 L 15.479039367825811,9.264301631587001 L 15.458060233744344,9.308658283817454 L 15.441529832133883,9.354857661372769 L 15.429607359798373,9.402454838991936 L 15.42240763666389,9.45099142983522 L 15.419999999999987,9.5 L 15.42240763666389,9.54900857016478 L 15.429607359798371,9.597545161008064 L 15.441529832133883,9.645142338627231 L 15.458060233744344,9.691341716182544 L 15.47903936782581,9.735698368412999 L 15.504265193848715,9.7777851165098 L 15.533494773318619,9.817196642081823 L 15.566446609406714,9.853553390593273 L 15.602803357918164,9.886505226681368 L 15.642214883490187,9.915734806151272 L 15.684301631586989,9.940960632174177 L 15.728658283817442,9.961939766255643 L 15.774857661372755,9.978470167866105 L 15.822454838991922,9.990392640201614 L 15.870991429835206,9.997592363336098 L 15.919999999999986,10.0 L 15.969008570164766,9.997592363336098 L 16.01754516100805,9.990392640201616 L 16.06514233862722,9.978470167866105 L 16.11134171618253,9.961939766255645 L 16.155698368412985,9.940960632174178 L 16.197785116509788,9.915734806151274 L 16.23719664208181,9.88650522668137 L 16.27355339059326,9.853553390593277 L 16.306505226681352,9.817196642081825 L 16.335734806151258,9.777785116509804 L 16.360960632174162,9.735698368413003 L 16.38193976625563,9.691341716182547 L 16.39847016786609,9.645142338627235 L 16.410392640201604,9.597545161008068 L 16.417592363336084,9.549008570164784 L 16.419999999999987,9.500000000000004 L 16.419999999999987,9.5 z"/>
			<path fill-rule="evenodd" fill="#66cc99" stroke="#555555" stroke-width="0.02" opacity="0.6" d="M 18.960000000000008,9.5 L 18.957592363336108,9.45099142983522 L 18.950392640201624,9.402454838991936 L 18.93847016786611,9.354857661372769 L 18.92193976625565,9.308658283817456 L 18.900960632174186,9.264301631587001 L 18.875734806151282,9.2222148834902 L 18.846505226681376,9.182803357918177 L 18.81355339059328,9.146446609406727 L 18.77719664208183,9.113494773318632 L 18.73778511650981,9.084265193848728 L 18.69569836841301,9.059039367825823 L 18.651341716182554,9.038060233744357 L 18.60514233862724,9.021529832133895 L 18.557545161008072,9.009607359798386 L 18.509008570164788,9.002407636663902 L 18.460000000000008,9.0 L 18.410991429835228,9.002407636663902 L 18.362454838991944,9.009607359798384 L 18.314857661372777,9.021529832133895 L 18.268658283817466,9.038060233744357 L 18.22430163158701,9.059039367825822 L 18.182214883490207,9.084265193848728 L 18.142803357918186,9.113494773318632 L 18.106446609406735,9.146446609406725 L 18.07349477331864,9.182803357918177 L 18.044265193848737,9.222214883490198 L 18.01903936782583,9.264301631587001 L 17.998060233744365,9.308658283817454 L 17.981529832133905,9.354857661372769 L 17.969607359798392,9.402454838991936 L 17.962407636663908,9.45099142983522 L 17.960000000000008,9.5 L 17.962407636663908,9.54900857016478 L 17.969607359798392,9.597545161008064 L 17.981529832133905,9.645142338627231 L 17.998060233744365,9.691341716182544 L 18.01903936782583,9.735698368412999 L 18.044265193848734,9.7777851165098 L 18.07349477331864,9.817196642081823 L 18.106446609406735,9.853553390593273 L 18.142803357918186,9.886505226681368 L 18.182214883490207,9.915734806151272 L 18.224301631587007,9.940960632174177 L 18.268658283817462,9.961939766255643 L 18.314857661372777,9.978470167866105 L 18.362454838991944,9.990392640201614 L 18.410991429835228,9.997592363336098 L 18.460000000000008,10.0 L 18.509008570164788,9.997592363336098 L 18.557545161008072,9.990392640201616 L 18.60514233862724,9.978470167866105 L 18.65134171618255,9.961939766255645 L 18.695698368413005,9.940960632174178 L 18.73778511650981,9.915734806151274 L 18.77719664208183,9.88650522668137 L 18.81355339059328,9.853553390593277 L 18.846505226681373,9.817196642081825 L 18.87573480615128,9.777785116509804 L 18.900960632174183,9.735698368413003 L 18.92193976625565,9.691341716182547 L 18.93847016786611,9.645142338627235 L 18.950392640201624,9.597545161008068 L 18.957592363336104,9.549008570164784 L 18.960000000000008,9.500000000000004 L 18.960000000000008,9.5 z"/>
			<path fill-rule="evenodd" fill="#66cc99" stroke="#555555" stroke-width="0.02" opacity="0.6" d="M 21.5,9.5 L 21.4975923633361,9.45099142983522 L 21.490392640201616,9.402454838991936 L 21.478470167866103,9.354857661372769 L 21.461939766255643,9.308658283817456 L 21.44096063217418,9.264301631587001 L 21.415734806151274,9.2222148834902 L 21.38650522668137,9.182803357918177 L 21.353553390593273,9.146446609406727 L 21.31719664208182,9.113494773318632 L 21.2777851165098,9.084265193848728 L 21.235698368413,9.059039367825823 L 21.191341716182546,9.038060233744357 L 21.14514233862723,9.021529832133895 L 21.097545161008064,9.009607359798386 L 21.04900857016478,9.002407636663902 L 21.0,9.0 L 20.95099142983522,9.002407636663902 L 20.902454838991936,9.009607359798384 L 20.85485766137277,9.021529832133895 L 20.808658283817458,9.038060233744357 L 20.764301631587003,9.059039367825822 L 20.7222148834902,9.084265193848728 L 20.68280335791818,9.113494773318632 L 20.646446609406727,9.146446609406725 L 20.61349477331863,9.182803357918177 L 20.58426519384873,9.222214883490198 L 20.55903936782582,9.264301631587001 L 20.538060233744357,9.308658283817454 L 20.521529832133897,9.354857661372769 L 20.509607359798384,9.402454838991936 L 20.5024076366639,9.45099142983522 L 20.5,9.5 L 20.5024076366639,9.54900857016478 L 20.509607359798384,9.597545161008064 L 20.521529832133897,9.645142338627231 L 20.538060233744357,9.691341716182544 L 20.55903936782582,9.735698368412999 L 20.584265193848726,9.7777851165098 L 20.61349477331863,9.817196642081823 L 20.646446609406727,9.853553390593273 L 20.68280335791818,9.886505226681368 L 20.7222148834902,9.915734806151272 L 20.764301631587,9.940960632174177 L 20.808658283817454,9.961939766255643 L 20.85485766137277,9.978470167866105 L 20.902454838991936,9.990392640201614 L 20.95099142983522,9.997592363336098 L 21.0,10.0 L 21.04900857016478,9.997592363336098 L 21.097545161008064,9.990392640201616 L 21.14514233862723,9.978470167866105 L 21.191341716182542,9.961939766255645 L 21.235698368412997,9.940960632174178 L 21.2777851165098,9.915734806151274 L 21.31719664208182,9.88650522668137 L 21.353553390593273,9.853553390593277 L 21.386505226681365,9.817196642081825 L 21.41573480615127,9.777785116509804 L 21.440960632174175,9.735698368413003 L 21.461939766255643,9.691341716182547 L 21.478470167866103,9.645142338627235 L 21.490392640201616,9.597545161008068 L 21.497592363336096,9.549008570164784 L 21.5,9.500000000000004 L 21.5,9.5 z"/>
			<path fill-rule="evenodd" fill="#66cc99" stroke="#555555" stroke-width="0.02" opacity="0.6" d="M 24.039999999999992,9.5 L 24.037592363336092,9.45099142983522 L 24.030392640201608,9.402454838991936 L 24.018470167866095,9.354857661372769 L 24.001939766255635,9.308658283817456 L 23.98096063217417,9.264301631587001 L 23.955734806151266,9.2222148834902 L 23.92650522668136,9.182803357918177 L 23.893553390593265,9.146446609406727 L 23.857196642081814,9.113494773318632 L 23.817785116509793,9.084265193848728 L 23.775698368412993,9.059039367825823 L 23.731341716182538,9.038060233744357 L 23.685142338627223,9.021529832133895 L 23.637545161008056,9.009607359798386 L 23.589008570164772,9.002407636663902 L 23.539999999999992,9.0 L 23.490991429835212,9.002407636663902 L 23.442454838991928,9.009607359798384 L 23.39485766137276,9.021529832133895 L 23.34865828381745,9.038060233744357 L 23.304301631586995,9.059039367825822 L 23.26221488349019,9.084265193848728 L 23.22280335791817,9.113494773318632 L 23.18644660940672,9.146446609406725 L 23.153494773318624,9.182803357918177 L 23.12426519384872,9.222214883490198 L 23.099039367825814,9.264301631587001 L 23.07806023374435,9.308658283817454 L 23.06152983213389,9.354857661372769 L 23.049607359798376,9.402454838991936 L 23.042407636663892,9.45099142983522 L 23.039999999999992,9.5 L 23.042407636663892,9.54900857016478 L 23.049607359798376,9.597545161008064 L 23.06152983213389,9.645142338627231 L 23.07806023374435,9.691341716182544 L 23.099039367825814,9.735698368412999 L 23.124265193848718,9.7777851165098 L 23.153494773318624,9.817196642081823 L 23.18644660940672,9.853553390593273 L 23.22280335791817,9.886505226681368 L 23.26221488349019,9.915734806151272 L 23.30430163158699,9.940960632174177 L 23.348658283817446,9.961939766255643 L 23.39485766137276,9.978470167866105 L 23.442454838991928,9.990392640201614 L 23.490991429835212,9.997592363336098 L 23.539999999999992,10.0 L 23.589008570164772,9.997592363336098 L 23.637545161008056,9.990392640201616 L 23.685142338627223,9.978470167866105 L 23.731341716182534,9.961939766255645 L 23.77569836841299,9.940960632174178 L 23.817785116509793,9.915734806151274 L 23.857196642081814,9.88650522668137 L 23.893553390593265,9.853553390593277 L 23.926505226681357,9.817196642081825 L 23.955734806151263,9.777785116509804 L 23.980960632174167,9.735698368413003 L 24.001939766255635,9.691341716182547 L 24.018470167866095,9.645142338627235 L 24.030392640201608,9.597545161008068 L 24.03759236333609,9.549008570164784 L 24.039999999999992,9.500000000000004 L 24.039999999999992,9.5 z"/>
			<path fill-rule="evenodd" fill="#66cc99" stroke="#555555" stroke-width="0.02" opacity="0.6" d="M 26.580000000000013,9.5 L 26.577592363336112,9.45099142983522 L 26.57039264020163,9.402454838991936 L 26.558470167866115,9.354857661372769 L 26.541939766255656,9.308658283817456 L 26.52096063217419,9.264301631587001 L 26.495734806151287,9.2222148834902 L 26.46650522668138,9.182803357918177 L 26.433553390593286,9.146446609406727 L 26.397196642081834,9.113494773318632 L 26.357785116509813,9.084265193848728 L 26.315698368413013,9.059039367825823 L 26.271341716182558,9.038060233744357 L 26.225142338627244,9.021529832133895 L 26.177545161008076,9.009607359798386 L 26.129008570164793,9.002407636663902 L 26.080000000000013,9.0 L 26.030991429835233,9.002407636663902 L 25.98245483899195,9.009607359798384 L 25.93485766137278,9.021529832133895 L 25.88865828381747,9.038060233744357 L 25.844301631587015,9.059039367825822 L 25.802214883490212,9.084265193848728 L 25.76280335791819,9.113494773318632 L 25.72644660940674,9.146446609406725 L 25.693494773318644,9.182803357918177 L 25.664265193848742,9.222214883490198 L 25.639039367825834,9.264301631587001 L 25.61806023374437,9.308658283817454 L 25.60152983213391,9.354857661372769 L 25.589607359798396,9.402454838991936 L 25.582407636663913,9.45099142983522 L 25.580000000000013,9.5 L 25.582407636663913,9.54900857016478 L 25.589607359798396,9.597545161008064 L 25.60152983213391,9.645142338627231 L 25.61806023374437,9.691341716182544 L 25.639039367825834,9.735698368412999 L 25.66426519384874,9.7777851165098 L 25.693494773318644,9.817196642081823 L 25.72644660940674,9.853553390593273 L 25.76280335791819,9.886505226681368 L 25.802214883490212,9.915734806151272 L 25.84430163158701,9.940960632174177 L 25.888658283817467,9.961939766255643 L 25.93485766137278,9.978470167866105 L 25.98245483899195,9.990392640201614 L 26.030991429835233,9.997592363336098 L 26.080000000000013,10.0 L 26.129008570164793,9.997592363336098 L 26.177545161008076,9.990392640201616 L 26.225142338627244,9.978470167866105 L 26.271341716182555,9.961939766255645 L 26.31569836841301,9.940960632174178 L 26.357785116509813,9.915734806151274 L 26.397196642081834,9.88650522668137 L 26.433553390593286,9.853553390593277 L 26.466505226681377,9.817196642081825 L 26.495734806151283,9.777785116509804 L 26.520960632174187,9.735698368413003 L 26.541939766255656,9.691341716182547 L 26.558470167866115,9.645142338627235 L 26.57039264020163,9.597545161008068 L 26.57759236333611,9.549008570164784 L 26.580000000000013,9.500000000000004 L 26.580000000000013,9.5 z"/>
		</g>
	</g>
	 
</svg>
