<?xml version="1.0" ?>
<svg xmlns="http://www.w3.org/2000/svg" xmlns:xlink="http://www.w3.org/1999/xlink" version="1.1" width="38.20024992506252mm" height="20.70024992506255mm" viewBox="1.1498750374687403 -20.550374887593826 38.20024992506252 20.70024992506255">
	<g transform="scale(1,-1)">
		<g>
			<polyline fill="none" stroke="#66cc99" stroke-width="0.02" points="1.1498750374711504,12.6 1.1498750374687403,15.999999997544451 1.1512000356430665,16.053974439305716 1.1524044558117428,16.07849097505594 1.1629852965179428,16.185920054129756 1.1665869574506733,16.210200480052183 1.1876467397938573,16.316075156064343 1.1936109556596453,16.339885640594417 1.2249468623705928,16.443186281462033 1.2332161945105105,16.466297516618212 1.274526443678422,16.566029280701382 1.2850212539033914,16.588218692654618 1.3359080052460774,16.683421108544877 1.3485272227961878,16.704475001127378 1.4085004090794575,16.794231217514877 1.4231225039917694,16.813946830232737 1.4916045506491116,16.897392445690997 1.5080887058896166,16.915579908328297 1.5453174851976044,16.95468251809929 5.045317481721402,20.45468251463157 5.08442009049579,20.491911293036463 5.102607552931254,20.508395448134618 5.1860531676550226,20.576877494411676 5.20576878034439,20.591499589362797 5.295524996615553,20.651472775822896 5.316578889173583,20.66409199341443 5.411781304962125,20.714978744942783 5.4339707168943,20.725473555211067 5.533702480895601,20.766783804574366 5.556813716035025,20.77505313675946 5.660114356841413,20.80638904367324 5.683924841360275,20.81235325958588 5.789799517333402,20.83341304213719 5.8140799432490935,20.83701470311757 5.921509023378937,20.84759554408728 5.946025559494664,20.848799964298006 6.000000002332053,20.85012496252525 18.35,20.85012496252786" opacity="0.8"/>
			<polyline fill="none" stroke="#66cc99" stroke-width="0.02" points="18.35,3.649875029185566 17.0592401034923,3.6498750353076472 15.9546825058577,2.5453174729475316 15.91557990950421,2.5080887069635356 15.897392447068746,2.4916045518653807 15.813946832344977,2.4231225055883234 15.79423121965561,2.4085004106372017 15.704475003384447,2.3485272241771042 15.683421110826417,2.3359080065855693 15.588218695037382,2.285021255056983 15.566029283105179,2.274526444788699 15.466297519104774,2.2332161954257796 15.443186283965378,2.2249468632406857 15.339885643158587,2.1936109563267605 15.316075158639725,2.1876467404141193 15.210200482666414,2.166586957862781 15.185920056750694,2.1629852968824017 15.078490976621095,2.1524044559127233 15.053974440505398,2.151200035701997 14.999999997668494,2.1498750374747515 6.500000002578714,2.149875037468726 6.446025561088118,2.1512000356297554 6.4215090252149425,2.1524044557984174 6.314079945870992,2.162985296517835 6.289799519948195,2.1665869574506083 6.183924843933862,2.1876467397942814 6.160114359403262,2.19361095566024 6.056813718535136,2.2249468623715467 6.033702483379426,2.2332161945113507 5.933970719297152,2.2745264436790853 5.91178130734423,2.285021253903941 5.816578891454751,2.3359080052463175 5.795524998872108,2.3485272227965273 5.705768782484125,2.408500409080223 5.6860531697661365,2.423122503992663 5.602607554309915,2.491604550648317 5.584420091673084,2.508088705888353 5.545317481900891,2.545317485197438 1.5453174853680265,6.545317481721819 1.5080887069633215,6.584420090496011 1.4916045518654082,6.602607552931205 1.4231225055883598,6.686053167654945 1.4085004106372239,6.705768780344327 1.3485272241769866,6.795524996615698 1.3359080065856932,6.816578889173329 1.2850212550578828,6.91178130496075 1.2745264447894566,6.933970716893167 1.233216195425548,7.033702480895849 1.2249468632404683,7.0568137160352595 1.1936109563270056,7.160114356840533 1.1876467404143787,7.183924841359267 1.166586957862999,7.289799517332342 1.1629852968825485,7.314079943248388 1.1524044559127182,7.4215090233790795 1.1512000357020062,7.446025559494536 1.1498750374747657,7.500000002331335 1.149875037473986,8.6" opacity="0.8"/>
			<polyline fill="none" stroke="#66cc99" stroke-width="0.02" points="39.350124962529115,8.6 39.35012496253126,4.500000002578354 39.34879996437021,4.446025561087451 39.34759554420153,4.421509025214219 39.33701470348204,4.314079945870152 39.33341304254931,4.2897995199477394 39.31235326020618,4.183924843935819 39.30638904434039,4.160114359405731 39.275053137629406,4.056813718537969 39.26678380548949,4.03370248338179 39.225473556321575,3.9339707192986175 39.214978746096605,3.9117813073453824 39.164091994753925,3.8165788914551224 39.151472777203814,3.795524998872622 39.09149959092054,3.705768782485122 39.07687749600823,3.686053169767262 39.008395449350886,3.602607554309005 38.99191129411038,3.5844200916717046 38.954682514802556,3.545317481900867 35.95468251827876,0.5453174853685855 35.91557990950421,0.5080887069635358 35.897392447068746,0.4916045518653809 35.813946832344975,0.42312250558832365 35.79423121965561,0.4085004106372019 35.704475003384445,0.34852722417710447 35.683421110826416,0.3359080065855695 35.588218695037384,0.28502125505698295 35.56602928310518,0.2745264447886989 35.46629751910478,0.23321619542577965 35.44318628396538,0.2249468632406857 35.33988564315859,0.1936109563267605 35.31607515863973,0.18764674041411933 35.210200482666416,0.16658695786278122 35.185920056750696,0.1629852968824017 35.0784909766211,0.15240445591272356 35.0539744405054,0.15120003570199736 34.999999997668546,0.1498750374747515 27.000000002578762,0.1498750374687261 26.946025561088117,0.15120003562975537 26.92150902521494,0.15240445579841744 26.81407994587099,0.1629852965178351 26.789799519948193,0.16658695745060825 26.683924843933863,0.18764673979428137 26.660114359403263,0.1936109556602399 26.556813718535135,0.2249468623715467 26.533702483379425,0.23321619451135067 26.433970719297154,0.2745264436790852 26.41178130734423,0.28502125390394084 26.31657889145475,0.33590800524631736 26.295524998872107,0.34852722279652715 26.205768782484125,0.4085004090802231 26.186053169766137,0.42312250399266293 26.102607554309916,0.491604550648317 26.084420091673085,0.5080887058883531 26.04531748190103,0.5453174851972985 22.940759959679063,3.6498750074115662 22.35,3.649875010213544" opacity="0.8"/>
			<polyline fill="none" stroke="#66cc99" stroke-width="0.02" points="22.35,20.850124962528707 34.49999999742183,20.850124962531275 34.55397443891188,20.848799964370244 34.578490974785055,20.84759554420158 34.68592005412901,20.837014703482165 34.7102004800518,20.83341304254939 34.81607515606614,20.812353260205718 34.83988564059674,20.80638904433976 34.94318628146486,20.775053137628454 34.96629751662057,20.76678380548865 35.06602928070285,20.725473556320914 35.08821869265577,20.714978746096058 35.18342110854525,20.664091994753683 35.20447500112789,20.651472777203473 35.29423121751588,20.591499590919778 35.31394683023387,20.576877496007338 35.39739244569009,20.50839544935168 35.41557990832692,20.491911294111645 35.45468251809899,20.45468251480268 38.954682514631855,16.9546825182783 38.99191129303668,16.91557990950399 39.00839544813459,16.897392447068796 39.07687749441164,16.813946832345056 39.091499589362776,16.794231219655675 39.15147277582302,16.704475003384303 39.16409199341431,16.68342111082667 39.214978744942115,16.58821869503925 39.22547355521054,16.566029283106833 39.26678380457445,16.46629751910415 39.27505313675953,16.44318628396474 39.30638904367299,16.339885643159466 39.31235325958562,16.316075158640732 39.333413042137,16.21020048266766 39.337014703117454,16.185920056751613 39.347595544087284,16.07849097662092 39.348799964297996,16.053974440505463 39.350124962525236,15.99999999766846 39.35012496252702,12.6" opacity="0.8"/>
		</g>
	</g>
	 
</svg>
