%TF.GenerationSoftware,KiCad,Pcbnew,8.0.3*%
%TF.CreationDate,2024-08-13T18:57:39+02:00*%
%TF.ProjectId,SD cc1101 def,53442063-6331-4313-9031-206465662e6b,rev?*%
%TF.SameCoordinates,Original*%
%TF.FileFunction,Copper,L1,Top*%
%TF.FilePolarity,Positive*%
%FSLAX46Y46*%
G04 Gerber Fmt 4.6, Leading zero omitted, Abs format (unit mm)*
G04 Created by KiCad (PCBNEW 8.0.3) date 2024-08-13 18:57:39*
%MOMM*%
%LPD*%
G01*
G04 APERTURE LIST*
%TA.AperFunction,ComponentPad*%
%ADD10R,1.700000X1.700000*%
%TD*%
%TA.AperFunction,ComponentPad*%
%ADD11O,1.700000X1.700000*%
%TD*%
%TA.AperFunction,Conductor*%
%ADD12C,0.500000*%
%TD*%
%TA.AperFunction,Conductor*%
%ADD13C,0.200000*%
%TD*%
G04 APERTURE END LIST*
D10*
%TO.P,REF\u002A\u002A,1*%
%TO.N,N/C*%
X196475000Y-71500000D03*
D11*
%TO.P,REF\u002A\u002A,2*%
X199015000Y-71500000D03*
%TO.P,REF\u002A\u002A,3*%
X201555000Y-71500000D03*
%TD*%
D10*
%TO.P,REF\u002A\u002A,1*%
%TO.N,N/C*%
X220275000Y-79500000D03*
D11*
%TO.P,REF\u002A\u002A,2*%
X217735000Y-79500000D03*
%TO.P,REF\u002A\u002A,3*%
X220275000Y-76960000D03*
%TO.P,REF\u002A\u002A,4*%
X217735000Y-76960000D03*
%TO.P,REF\u002A\u002A,5*%
X220275000Y-74420000D03*
%TO.P,REF\u002A\u002A,6*%
X217735000Y-74420000D03*
%TO.P,REF\u002A\u002A,7*%
X220275000Y-71880000D03*
%TO.P,REF\u002A\u002A,8*%
X217735000Y-71880000D03*
%TD*%
D10*
%TO.P,REF\u002A\u002A,1*%
%TO.N,N/C*%
X194300000Y-76500000D03*
D11*
%TO.P,REF\u002A\u002A,2*%
X196840000Y-76500000D03*
%TO.P,REF\u002A\u002A,3*%
X199380000Y-76500000D03*
%TO.P,REF\u002A\u002A,4*%
X201920000Y-76500000D03*
%TO.P,REF\u002A\u002A,5*%
X204460000Y-76500000D03*
%TO.P,REF\u002A\u002A,6*%
X207000000Y-76500000D03*
%TO.P,REF\u002A\u002A,7*%
X209540000Y-76500000D03*
%TO.P,REF\u002A\u002A,8*%
X212080000Y-76500000D03*
%TD*%
D12*
%TO.N,*%
X213000000Y-74500000D02*
X215460000Y-76960000D01*
X203460000Y-74500000D02*
X213000000Y-74500000D01*
X215460000Y-76960000D02*
X217735000Y-76960000D01*
X201920000Y-76040000D02*
X203460000Y-74500000D01*
X201920000Y-76500000D02*
X201920000Y-76040000D01*
X214657500Y-73000000D02*
X216077500Y-74420000D01*
X216077500Y-74420000D02*
X217735000Y-74420000D01*
X203000000Y-73000000D02*
X214657500Y-73000000D01*
X202000000Y-74000000D02*
X203000000Y-73000000D01*
X196840000Y-75160000D02*
X198000000Y-74000000D01*
X198000000Y-74000000D02*
X202000000Y-74000000D01*
X196840000Y-76500000D02*
X196840000Y-75160000D01*
X193500000Y-79500000D02*
X217735000Y-79500000D01*
X191500000Y-77500000D02*
X193500000Y-79500000D01*
X195000000Y-69500000D02*
X191500000Y-73000000D01*
X191500000Y-73000000D02*
X191500000Y-77500000D01*
X197000000Y-69500000D02*
X195000000Y-69500000D01*
X198000000Y-69500000D02*
X197015000Y-69500000D01*
X199015000Y-70515000D02*
X198000000Y-69500000D01*
X199015000Y-71500000D02*
X199015000Y-70515000D01*
D13*
X197015000Y-69500000D02*
X197000000Y-69500000D01*
D12*
X194300000Y-76500000D02*
X194300000Y-73675000D01*
X194300000Y-73675000D02*
X196475000Y-71500000D01*
%TD*%
M02*
